Coordinates
version=1
nRows=31
nColumns=33
inDegrees=yes

Units are S.I. units (second, meters, Newtons, ...)
Angles are in degrees.

endheader
time	ground_thorax_rot_x	ground_thorax_rot_y	ground_thorax_rot_z	ground_thorax_tx	ground_thorax_ty	ground_thorax_tz	clav_prot_r	clav_elev_r	scapula_abduction_r	scapula_elevation_r	scapula_upward_rot_r	scapula_winging_r	shoulder_elv_r	plane_of_elev_r	axial_rot_r	elbow_flexion_r	pro_sup_r	wrist_flex_r	wrist_dev_r	clav_prot_l	clav_elev_l	scapula_abduction_l	scapula_elevation_l	scapula_upward_rot_l	scapula_winging_l	shoulder_elv_l	plane_of_elev_l	axial_rot_l	elbow_flexion_l	pro_sup_l	wrist_flex_l	wrist_dev_l	
10.5800	-36.937308	-2.914742	4.107856	-21.376129	832.740064	-46.303389	18.069361	-45.000000	39.915047	-45.000000	-19.754263	1706.097243	1512.016143	23.598074	180.000000	1798.559518	162.783966	14.467701	15.866070	7.006760	28.499545	-34.094671	-45.000000	-45.000000	2233.322874	-3859.783047	21.297654	-180.000000	701.702743	-7.045459	-0.194058	-7.153911	
10.5900	-36.873437	-2.672245	3.823648	-18.232030	831.719962	-46.318043	17.898537	-45.000000	40.379855	-45.000000	-18.432652	1706.063252	1511.876248	23.539211	180.000000	1798.581710	163.354727	14.360930	15.850934	7.294683	28.482235	-34.450340	-45.000000	-45.000000	2233.207014	-3859.766211	21.355192	-180.000000	701.712263	-5.092218	-0.082116	-7.022815	
10.6000	-36.812069	-2.390307	3.493942	-15.006683	830.627461	-46.323331	17.713125	-45.000000	40.878031	-45.000000	-17.031981	1706.015236	1511.727104	23.476484	180.000000	1798.613507	163.982638	14.262635	15.828798	7.603945	28.462461	-34.834474	-45.000000	-45.000000	2233.086978	-3859.745284	21.417186	-180.000000	701.737776	-3.075852	0.048174	-6.893009	
10.6100	-36.752493	-2.066229	3.115039	-11.704792	829.460288	-46.318613	17.515166	-45.000000	41.413673	-45.000000	-15.548803	1705.950792	1511.570685	23.407732	180.000000	1798.651714	164.659020	14.171188	15.801830	7.943816	28.443982	-35.245927	-45.000000	-45.000000	2232.961901	-3859.719162	21.484661	-180.000000	701.780362	-0.980030	0.198642	-6.764835	
10.6200	-36.694624	-1.697679	2.685337	-8.333490	828.217673	-46.303254	17.306907	-45.000000	41.987798	-45.000000	-13.981286	1705.868871	1511.408578	23.331236	180.000000	1798.694778	165.374686	14.084303	15.770817	8.323415	28.430441	-35.688494	-45.000000	-45.000000	2232.833954	-3859.688408	21.556197	-180.000000	701.840403	1.207681	0.371025	-6.639503	
10.6300	-36.637814	-1.286998	2.208471	-4.901135	826.900063	-46.276567	17.094269	-45.000000	42.596084	-45.000000	-12.341587	1705.771890	1511.244096	23.248444	180.000000	1798.741824	166.123431	14.000443	15.736136	8.751071	28.426242	-36.161477	-45.000000	-45.000000	2232.703415	-3859.656305	21.630089	-180.000000	701.918707	3.498239	0.562140	-6.517205	
10.6400	-36.582964	-0.845116	1.700809	-1.415292	825.508501	-46.237780	16.885008	-45.000000	43.216216	-45.000000	-10.672835	1705.673247	1511.082108	23.157856	180.000000	1798.785833	166.896414	13.919738	15.698548	9.241550	28.438635	-36.660640	-45.000000	-45.000000	2232.570901	-3859.624015	21.702341	-180.000000	702.015413	5.884454	0.768100	-6.400779	
10.6500	-36.533173	-0.397886	1.197323	2.117435	824.044539	-46.186106	16.691523	-45.000000	43.795680	-45.000000	-9.070242	1705.599037	1510.923898	23.075333	180.000000	1798.836035	167.692891	13.842285	15.653329	9.786266	28.466764	-37.176048	-45.000000	-45.000000	2232.437606	-3859.599030	21.768821	-180.000000	702.131717	8.357449	0.958577	-6.286323	
10.6600	-36.485614	0.091448	0.676545	5.692102	822.509794	-46.120915	16.451015	-45.000000	44.283255	-45.000000	-7.517526	1705.574843	1510.773593	22.996091	180.000000	1798.891247	168.512803	13.765413	15.601415	10.336637	28.490551	-37.727917	-45.000000	-45.000000	2232.306636	-3859.570021	21.837769	-180.000000	702.268246	10.918953	1.161094	-6.179066	
10.6700	-36.440970	0.622064	0.148106	9.304707	820.905992	-46.041902	16.137599	-45.000000	44.640290	-45.000000	-6.046529	1705.624031	1510.631416	22.921803	180.000000	1798.960707	169.358773	13.688381	15.537753	10.858897	28.497596	-38.318105	-45.000000	-45.000000	2232.178649	-3859.540958	21.909830	-180.000000	702.428752	13.587272	1.378410	-6.078465	
10.6800	-36.396088	1.202016	-0.392975	12.952192	819.234657	-45.949271	15.733269	-45.000000	44.864525	-45.000000	-4.642409	1705.755804	1510.501249	22.834950	180.000000	1799.032813	170.220865	13.609495	15.467357	11.340823	28.485046	-38.941383	-45.000000	-45.000000	2232.046662	-3859.504144	21.986130	-180.000000	702.612883	16.360538	1.640416	-5.991673	
10.6900	-36.352305	1.812155	-0.933970	16.631304	817.497293	-45.843772	15.247050	-45.000000	44.968968	-45.000000	-3.331866	1705.964159	1510.374661	22.745604	180.000000	1799.119386	171.095554	13.532686	15.382411	11.824412	28.465701	-39.599800	-45.000000	-45.000000	2231.919358	-3859.475882	22.063631	-180.000000	702.825230	19.247587	1.912441	-5.910980	
10.7000	-36.302482	2.481670	-1.513860	20.338466	815.695406	-45.726640	14.664243	-45.000000	45.000000	-45.000000	-2.031807	1706.225490	1510.250678	22.644779	180.000000	1799.209613	171.972444	13.457978	15.288120	12.329399	28.444369	-40.303702	-45.000000	-45.000000	2231.798321	-3859.447759	22.149159	-180.000000	703.064554	22.261640	2.215831	-5.839007	
10.7100	-36.248668	3.179143	-2.112497	24.068912	813.831068	-45.599411	14.028285	-45.000000	45.000000	-45.000000	-0.760886	1706.511383	1510.118962	22.542171	180.000000	1799.307174	172.841982	13.388936	15.181695	12.911580	28.442701	-41.039937	-45.000000	-45.000000	2231.687659	-3859.430419	22.236194	-180.000000	703.333078	25.420610	2.515429	-5.766831	
10.7200	-36.187134	3.884627	-2.720469	27.816690	811.907225	-45.463738	13.406888	-45.000000	45.000000	-45.000000	0.470872	1706.813239	1509.986137	22.432031	180.000000	1799.400487	173.684749	13.321667	15.073225	13.575041	28.468190	-41.781099	-45.000000	-45.000000	2231.575316	-3859.415567	22.318919	-180.000000	703.625872	28.696733	2.818087	-5.700589	
10.7300	-36.123181	4.569002	-3.311845	31.574502	809.927966	-45.321270	12.829997	-45.000000	45.000000	-45.000000	1.623447	1707.128022	1509.845638	22.323703	180.000000	1799.504633	174.491179	13.254635	14.958214	14.312470	28.518619	-42.514278	-45.000000	-45.000000	2231.465291	-3859.411071	22.392807	-180.000000	703.943120	32.065266	3.096508	-5.635171	
10.7400	-36.055333	5.240224	-3.894993	35.333856	807.898698	-45.173523	12.315083	-45.000000	45.000000	-45.000000	2.710516	1707.459330	1509.704820	22.213416	180.000000	1799.614804	175.251830	13.180671	14.845885	15.043644	28.568022	-43.219248	-45.000000	-45.000000	2231.343537	-3859.392787	22.460812	-180.000000	704.276465	35.492998	3.381849	-5.575557	
10.7500	-35.992454	5.837683	-4.413485	39.084708	805.826315	-45.021820	11.856674	-45.000000	45.000000	-45.000000	3.671585	1707.809405	1509.562120	22.097851	180.000000	1799.742629	175.957834	13.096716	14.730784	15.718330	28.602862	-43.841173	-45.000000	-45.000000	2231.195909	-3859.368022	22.523030	-180.000000	704.629551	38.947336	3.666843	-5.517330	
10.7600	-35.937966	6.318670	-4.828070	42.815087	803.719053	-44.866942	11.486928	-45.000000	45.000000	-45.000000	4.447092	1708.180360	1509.422873	21.980956	180.000000	1799.889479	176.598339	12.998836	14.617728	16.293736	28.613853	-44.328851	-45.000000	-45.000000	2231.003939	-3859.326364	22.578643	-180.000000	704.995752	42.371270	3.946712	-5.458164	
10.7700	-35.897262	6.666104	-5.124985	46.510729	801.586174	-44.708876	11.169277	-45.000000	45.000000	-45.000000	5.025941	1708.567598	1509.281321	21.865850	180.000000	1800.062705	177.172029	12.890352	14.499730	16.765953	28.597130	-44.670874	-44.999999	-45.000000	2230.771547	-3859.277547	22.632717	-180.000000	705.375112	45.728496	4.205090	-5.391108	
10.7800	-35.867918	6.899986	-5.321228	50.154942	799.437796	-44.546486	10.913364	-45.000000	45.000000	-45.000000	5.415421	1708.963205	1509.140021	21.760470	180.000000	1800.251385	177.681425	12.775014	14.381985	17.146448	28.556394	-44.878893	-44.999999	-45.000000	2230.501266	-3859.211333	22.685654	-180.000000	705.756719	48.993896	4.438705	-5.313025	
10.7900	-35.849269	7.033548	-5.428870	53.729211	797.284749	-44.377812	10.695122	-45.000000	45.000000	-45.000000	5.641298	1709.364899	1508.999116	21.660355	180.000000	1800.454562	178.130420	12.654862	14.262575	17.446837	28.494911	-44.972417	-44.999998	-45.000000	2230.199517	-3859.140933	22.737063	-180.000000	706.141679	52.156687	4.651626	-5.227433	
10.8000	-35.835193	7.118962	-5.492342	57.214514	795.138374	-44.200389	10.513974	-45.000000	45.000000	-45.000000	5.760258	1709.765045	1508.861829	21.566772	180.000000	1800.664121	178.525574	12.531088	14.149994	17.689729	28.418588	-45.000000	-44.999997	-45.000000	2229.878686	-3859.062014	22.783936	-180.000000	706.522066	55.218869	4.858103	-5.141434	
10.8100	-35.825070	7.183078	-5.534659	60.593257	793.010422	-44.012160	10.378441	-45.000000	45.000000	-45.000000	5.809162	1710.164146	1508.728153	21.471390	180.000000	1800.877653	178.868906	12.405910	14.043822	17.903842	28.335731	-45.000000	-44.999994	-45.000000	2229.552488	-3858.988318	22.822808	-180.000000	706.898305	58.178869	5.063832	-5.060552	
10.8200	-35.814296	7.255037	-5.583458	63.850506	790.913045	-43.812063	10.271661	-45.000000	45.000000	-45.000000	5.811048	1710.561011	1508.603006	21.377921	180.000000	1801.085420	179.161533	12.281514	13.948695	18.101960	28.250551	-45.000000	-44.999990	-45.000000	2229.229554	-3858.917022	22.851576	-180.000000	707.265121	61.049464	5.276619	-4.990812	
10.8300	-35.803455	7.327604	-5.631668	66.974803	788.858943	-43.600483	10.173227	-45.000000	45.000000	-45.000000	5.769809	1710.957423	1508.489357	21.283631	180.000000	1801.296195	179.399328	12.156355	13.861896	18.280766	28.161858	-45.000000	-44.999982	-45.000000	2228.913121	-3858.860212	22.873115	-180.000000	707.628118	63.841322	5.498253	-4.936153	
10.8400	-35.791209	7.404896	-5.683212	69.957215	786.861292	-43.378847	10.064262	-45.000000	45.000000	-45.000000	5.691427	1711.349412	1508.388723	21.193148	180.000000	1801.510085	179.575274	12.030309	13.785999	18.436440	28.069838	-45.000000	-44.999967	-45.000000	2228.606213	-3858.813190	22.888755	-180.000000	707.983443	66.566772	5.731940	-4.899429	
10.8500	-35.780199	7.483266	-5.729941	72.790735	784.933864	-43.148721	9.982842	-45.000000	45.000000	-45.000000	5.571830	1711.730675	1508.298485	21.108196	180.000000	1801.729584	179.679082	11.904059	13.721624	18.580674	27.979550	-45.000000	-44.999941	-45.000000	2228.312085	-3858.776444	22.898936	-180.000000	708.329578	69.209106	5.967205	-4.874850	
10.8600	-35.768283	7.561939	-5.774485	75.467912	783.090791	-42.911400	9.918012	-45.000000	45.000000	-45.000000	5.409468	1712.105562	1508.223628	21.027752	180.000000	1801.950030	179.703167	11.779469	13.668505	18.714383	27.892994	-45.000000	-44.999896	-45.000000	2228.031288	-3858.752161	22.902366	-180.000000	708.664009	71.755567	6.204885	-4.867192	
10.8700	-35.759076	7.633232	-5.801763	77.981055	781.347027	-42.666389	9.896396	-45.000000	45.000000	-45.000000	5.203757	1712.456816	1508.159349	20.958819	180.000000	1802.176490	179.651607	11.656596	13.627517	18.838037	27.811029	-45.000000	-44.999811	-45.000000	2227.765048	-3858.746030	22.898880	-180.000000	708.986110	74.181408	6.432627	-4.865740	
10.8800	-35.753084	7.696903	-5.813836	80.321416	779.717543	-42.411681	9.901126	-45.000000	45.000000	-45.000000	4.962950	1712.785268	1508.108795	20.896274	180.000000	1802.402176	179.540616	11.541071	13.593794	18.950943	27.734336	-45.000000	-44.999668	-45.000000	2227.514730	-3858.757759	22.887504	-180.000000	709.294844	76.473305	6.651270	-4.876963	
